simulation
nRows=62
nColumns=15
endheader
time  TH_x TH_y TH_z SC_y  SC_z  SC_x  AC_y  AC_z  AC_x  GH_y  GH_z  GH_yy  EL_x  PS_y
0.000000  0.000000  0.000000  0.000000  -28.961482  -1.135444  3.078792  57.123783  5.096749  -6.972061  24.793485  15.688380  15.072894  27.101821  135.646795
0.039394  0.000000  0.000000  0.000000  -29.075044  -1.127339  3.088305  56.653803  5.340468  -7.656738  26.357218  14.961763  14.136330  26.649864  135.569077
0.078788  0.000000  0.000000  0.000000  -29.062166  -1.142277  3.082030  56.404469  5.429853  -7.873937  26.388227  14.351222  14.417137  26.240655  135.614900
0.118182  0.000000  0.000000  0.000000  -28.960543  -1.175427  3.079933  56.334389  5.401765  -7.746578  25.482976  13.915335  15.345378  25.876613  135.718860
0.157576  0.000000  0.000000  0.000000  -28.807867  -1.221958  3.101980  56.402174  5.293064  -7.397585  24.237927  13.712680  16.351114  25.560158  135.815553
0.196970  0.000000  0.000000  0.000000  -28.641831  -1.277041  3.168136  56.566435  5.140613  -6.949880  23.249544  13.801836  16.864409  25.293711  135.839577
0.236364  0.000000  0.000000  0.000000  -28.500128  -1.335846  3.298367  56.785782  4.981271  -6.526384  23.114289  14.241380  16.315323  25.079692  135.725526
0.275758  0.000000  0.000000  0.000000  -28.420391  -1.393545  3.512575  57.018891  4.851895  -6.249806  24.427359  15.089749  14.135153  24.920516  135.408178
0.315152  0.000000  0.000000  0.000000  -28.421107  -1.446288  3.810652  57.244887  4.787789  -6.176485  27.390610  16.360559  10.137943  24.817698  134.878322
0.354545  0.000000  0.000000  0.000000  -28.474595  -1.492583  4.144236  57.492204  4.820512  -6.202704  31.257309  17.959351  5.060790  24.770568  134.261828
0.393939  0.000000  0.000000  0.000000  -28.546354  -1.531284  4.457837  57.796564  4.981073  -6.201102  35.140593  19.775701  -0.222856  24.778137  133.704521
0.433333  0.000000  0.000000  0.000000  -28.603857  -1.561563  4.703583  58.190977  5.294181  -6.058029  38.233587  21.706463  -4.914251  24.838131  133.334055
0.472727  0.000000  0.000000  0.000000  -28.631256  -1.585270  4.898054  58.685549  5.731273  -5.775827  40.405919  23.710081  -8.846519  24.937427  133.124406
0.512121  0.000000  0.000000  0.000000  -28.621093  -1.605603  5.090233  59.278862  6.237003  -5.415157  41.867382  25.775967  -12.170501  25.057442  132.972275
0.551515  0.000000  0.000000  0.000000  -28.566305  -1.625713  5.328777  59.969055  6.756775  -5.036986  42.830429  27.893588  -15.040150  25.179568  132.774799
0.590909  0.000000  0.000000  0.000000  -28.478244  -1.645688  5.630721  60.734240  7.288807  -4.694776  43.512186  30.042647  -17.648246  25.285802  132.485611
0.630303  0.000000  0.000000  0.000000  -28.395937  -1.661010  5.965558  61.522437  7.910713  -4.430705  44.136803  32.188162  -20.245938  25.359057  132.143271
0.669697  0.000000  0.000000  0.000000  -28.360699  -1.666779  6.298862  62.279183  8.706652  -4.286021  44.929010  34.293940  -23.089191  25.382320  131.793344
0.709091  0.000000  0.000000  0.000000  -28.402674  -1.657716  6.604224  62.962262  9.737208  -4.288672  46.051978  36.332500  -26.357809  25.342713  131.473485
0.748485  0.000000  0.000000  0.000000  -28.497041  -1.626668  6.894692  63.589742  10.946915  -4.401151  47.365879  38.319236  -29.856724  25.247690  131.182424
0.787879  0.000000  0.000000  0.000000  -28.602098  -1.565907  7.195433  64.198207  12.244659  -4.565844  48.637813  40.282716  -33.275720  25.110955  130.906935
0.827273  0.000000  0.000000  0.000000  -28.677537  -1.468276  7.530883  64.822380  13.540882  -4.725802  49.641552  42.248879  -36.312271  24.946533  130.634487
0.866667  0.000000  0.000000  0.000000  -28.712864  -1.338772  7.909841  65.457297  14.779211  -4.838304  50.293039  44.187838  -38.827805  24.775282  130.367391
0.906061  0.000000  0.000000  0.000000  -28.726083  -1.194012  8.326156  66.060057  15.934999  -4.874233  50.644134  46.016331  -40.840494  24.624589  130.122145
0.945455  0.000000  0.000000  0.000000  -28.736331  -1.051071  8.773082  66.586247  16.984877  -4.805028  50.752138  47.648990  -42.374801  24.522093  129.915811
0.984848  0.000000  0.000000  0.000000  -28.757177  -0.920474  9.247087  67.002612  17.912192  -4.615639  50.671537  49.035789  -43.470964  24.483329  129.760270
1.024242  0.000000  0.000000  0.000000  -28.785798  -0.793469  9.754086  67.308718  18.720050  -4.330765  50.448529  50.230660  -44.215627  24.488231  129.652157
1.063636  0.000000  0.000000  0.000000  -28.816373  -0.657780  10.301724  67.510131  19.415171  -3.982375  50.127794  51.306556  -44.703927  24.510219  129.585320
1.103030  0.000000  0.000000  0.000000  -28.844362  -0.501785  10.894981  67.611941  20.006952  -3.600419  49.755126  52.329996  -45.030316  24.524017  129.550886
1.142424  0.000000  0.000000  0.000000  -28.878958  -0.320861  11.510300  67.614121  20.533442  -3.193219  49.388225  53.298590  -45.281940  24.518317  129.510881
1.181818  0.000000  0.000000  0.000000  -28.937678  -0.114633  12.106812  67.513539  21.050070  -2.755979  49.092014  54.168153  -45.541515  24.490280  129.409672
1.221212  0.000000  0.000000  0.000000  -29.038021  0.117179  12.643687  67.307318  21.612192  -2.283854  48.930913  54.894277  -45.891023  24.437136  129.191905
1.260606  0.000000  0.000000  0.000000  -29.184173  0.371514  13.106785  67.020721  22.245134  -1.785112  48.912378  55.467002  -46.348808  24.351193  128.852057
1.300000  0.000000  0.000000  0.000000  -29.356238  0.639266  13.530265  66.729942  22.919877  -1.291743  48.940771  55.938716  -46.818055  24.215855  128.474785
1.339394  0.000000  0.000000  0.000000  -29.531786  0.910693  13.953369  66.516537  23.601680  -0.838233  48.909600  56.368368  -47.189825  24.013589  128.154237
1.378788  0.000000  0.000000  0.000000  -29.691014  1.174631  14.407828  66.445527  24.257760  -0.453779  48.732455  56.804577  -47.374720  23.733925  127.968698
1.418182  0.000000  0.000000  0.000000  -29.830105  1.411273  14.879717  66.481431  24.867247  -0.135423  48.444985  57.233171  -47.402122  23.409342  127.900025
1.457576  0.000000  0.000000  0.000000  -29.951248  1.597565  15.337955  66.551011  25.413744  0.131874  48.128699  57.616383  -47.346043  23.088449  127.893848
1.496970  0.000000  0.000000  0.000000  -30.056645  1.711172  15.751767  66.582702  25.881145  0.363062  47.863661  57.917334  -47.279178  22.818686  127.896730
1.536364  0.000000  0.000000  0.000000  -30.148501  1.751320  16.100379  66.556751  26.261667  0.569822  47.684501  58.126725  -47.232731  22.611749  127.884982
1.575758  0.000000  0.000000  0.000000  -30.229030  1.741907  16.374461  66.512709  26.557061  0.760089  47.573845  58.266826  -47.190415  22.438426  127.868960
1.615152  0.000000  0.000000  0.000000  -30.300447  1.708187  16.565313  66.493375  26.769600  0.941591  47.511469  58.361637  -47.133341  22.267264  127.860888
1.654545  0.000000  0.000000  0.000000  -30.367107  1.673917  16.666340  66.529671  26.901158  1.114320  47.484635  58.425932  -47.050173  22.079803  127.867741
1.693939  0.000000  0.000000  0.000000  -30.441094  1.657469  16.678552  66.609673  26.952169  1.250347  47.507604  58.441207  -46.956821  21.904467  127.877570
1.733333  0.000000  0.000000  0.000000  -30.536232  1.675999  16.604667  66.711798  26.922744  1.315450  47.600725  58.381457  -46.875334  21.780245  127.874159
1.772727  0.000000  0.000000  0.000000  -30.664430  1.744074  16.445476  66.814975  26.814231  1.278035  47.780204  58.222164  -46.821798  21.743616  127.843618
1.812121  0.000000  0.000000  0.000000  -30.811153  1.840535  16.175120  66.905220  26.645070  1.142763  48.005079  57.959338  -46.729937  21.796427  127.804175
1.851515  0.000000  0.000000  0.000000  -30.942589  1.918179  15.748314  66.973714  26.446157  0.940729  48.192719  57.603957  -46.473441  21.915276  127.797470
1.890909  0.000000  0.000000  0.000000  -31.024567  1.929341  15.119573  67.011746  26.248565  0.703561  48.259883  57.167252  -45.925169  22.076214  127.865527
1.930303  0.000000  0.000000  0.000000  -31.037471  1.851167  14.290463  67.008952  26.062818  0.450499  48.188858  56.644101  -45.060466  22.260092  128.021839
1.969697  0.000000  0.000000  0.000000  -30.993552  1.715103  13.365521  66.951342  25.854472  0.173664  48.105329  55.993595  -44.078977  22.458266  128.217458
2.009091  0.000000  0.000000  0.000000  -30.909274  1.559781  12.462906  66.824452  25.583128  -0.138410  48.153959  55.170085  -43.210029  22.663481  128.395176
2.048485  0.000000  0.000000  0.000000  -30.798757  1.419252  11.683464  66.617418  25.213220  -0.493671  48.453171  54.138115  -42.643681  22.867525  128.509499
2.087879  0.000000  0.000000  0.000000  -30.658391  1.292930  10.997189  66.346608  24.745664  -0.873481  48.923103  52.939239  -42.273239  23.054938  128.603479
2.127273  0.000000  0.000000  0.000000  -30.476469  1.164404  10.314285  66.040833  24.198051  -1.247057  49.393287  51.650195  -41.856417  23.206951  128.760626
2.166667  0.000000  0.000000  0.000000  -30.241703  1.017410  9.546027  65.728675  23.587950  -1.583808  49.694880  50.346928  -41.153629  23.305186  129.063217
2.206061  0.000000  0.000000  0.000000  -29.963332  0.845650  8.664370  65.425819  22.928197  -1.864511  49.751077  49.062218  -40.075199  23.349144  129.530033
2.245455  0.000000  0.000000  0.000000  -29.678747  0.656502  7.724526  65.130252  22.225139  -2.085535  49.611344  47.769635  -38.737102  23.362860  130.092742
2.284848  0.000000  0.000000  0.000000  -29.427381  0.458337  6.787734  64.838681  21.484652  -2.244380  49.334293  46.438461  -37.270215  23.372148  130.676701
2.324242  0.000000  0.000000  0.000000  -29.237650  0.258740  5.904679  64.544077  20.709619  -2.342880  48.965513  45.045445  -35.770480  23.401640  131.218658
2.363636  0.000000  0.000000  0.000000  -29.089114  0.061832  5.079212  64.222835  19.889651  -2.402092  48.492811  43.600478  -34.178865  23.470737  131.705902
2.403030  0.000000  0.000000  0.000000  -28.947789  -0.129229  4.302201  63.846757  19.010679  -2.448407  47.887979  42.122635  -32.393379  23.597386  132.139727
